<?xml version="1.0" encoding="UTF-8" standalone="no"?>
<!DOCTYPE svg PUBLIC "-//W3C//DTD SVG 1.1//EN" "http://www.w3.org/Graphics/SVG/1.1/DTD/svg11.dtd">
<svg version="1.1" xmlns="http://www.w3.org/2000/svg" xmlns:xlink="http://www.w3.org/1999/xlink" preserveAspectRatio="xMidYMid meet" viewBox="255.7122548493317 108.75626467113997 81.96193398271652 76.42686041288593" width="77.96" height="72.43"><defs><path d="M333.21 149.85C335.16 147.84 335.16 144.65 333.21 142.64C326.15 135.36 308.95 117.64 302.01 110.49C300.51 108.94 297.89 110.01 297.89 112.16C297.89 114.75 297.89 121.23 297.89 131.6C278.45 131.6 266.31 131.6 261.45 131.6C258.83 131.6 256.71 133.72 256.71 136.34C256.71 141.26 256.71 151.29 256.71 156.21C256.71 158.83 258.83 160.95 261.45 160.95C266.31 160.95 278.45 160.95 297.89 160.95C297.89 170.79 297.89 176.94 297.89 179.4C297.89 181.89 300.92 183.12 302.65 181.34C309.46 174.32 326.15 157.13 333.21 149.85Z" id="l3ardeMYsF"></path></defs><g><g><use xlink:href="#l3ardeMYsF" opacity="1" fill="#f5fafd" fill-opacity="1"></use></g></g></svg>